<?xml version="1.0" standalone="no"?>
<!DOCTYPE svg PUBLIC "-//W3C//DTD SVG 20010904//EN"
 "http://www.w3.org/TR/2001/REC-SVG-20010904/DTD/svg10.dtd">
<svg version="1.0" xmlns="http://www.w3.org/2000/svg"
 width="200.000000pt" height="200.000000pt" viewBox="0 0 200.000000 200.000000"
 preserveAspectRatio="xMidYMid meet">

<g transform="translate(0.000000,200.000000) scale(0.100000,-0.100000)"
fill="#000000" stroke="none">
<path d="M248 1354 c-74 -40 -82 -157 -14 -209 32 -24 38 -25 189 -25 144 0
159 -2 177 -20 16 -16 18 -25 10 -40 -10 -19 -22 -20 -220 -20 -135 0 -210 -4
-210 -10 0 -6 15 -27 34 -48 l34 -37 169 -3 c183 -4 226 3 263 43 33 36 39
118 10 163 -33 53 -69 62 -244 62 -142 0 -155 2 -161 19 -3 10 -3 26 1 35 5
14 31 16 220 16 l215 0 -16 30 c-28 54 -55 60 -252 60 -138 -1 -184 -4 -205
-16z"/>
<path d="M1379 1331 c-33 -32 -39 -45 -39 -80 0 -23 7 -55 15 -71 27 -52 58
-60 223 -60 133 0 152 -2 173 -19 20 -16 22 -23 13 -38 -10 -16 -31 -18 -223
-21 -116 -1 -211 -6 -211 -11 0 -18 45 -64 76 -77 46 -19 332 -19 378 0 52 22
76 60 76 121 0 55 -20 93 -63 118 -14 7 -82 14 -186 17 -139 4 -166 8 -174 22
-8 12 -7 21 2 32 12 14 44 16 222 16 115 0 209 3 209 8 0 16 -33 53 -60 67
-23 12 -69 15 -211 15 l-181 0 -39 -39z"/>
<path d="M836 1309 c-26 -20 -27 -26 -24 -93 2 -57 0 -74 -14 -88 -13 -13 -18
-34 -18 -77 0 -54 3 -62 31 -85 30 -26 32 -26 210 -26 l179 0 32 29 c32 28 33
32 33 108 l0 78 -40 0 c-32 0 -40 -4 -43 -20 -2 -11 -5 -25 -7 -32 -2 -7 -49
7 -137 41 -122 48 -133 54 -136 79 l-3 28 113 -3 113 -3 3 -27 c4 -30 30 -43
68 -34 21 6 24 12 24 52 0 34 -6 51 -25 69 -23 24 -28 25 -178 25 -142 0 -156
-2 -181 -21z m201 -235 c65 -25 122 -49 128 -55 5 -5 -45 -9 -136 -9 -99 0
-149 4 -157 12 -18 18 -15 75 6 87 26 16 32 14 159 -35z"/>
</g>
</svg>
