<?xml version="1.0" encoding="UTF-8"?>
<svg xmlns="http://www.w3.org/2000/svg" width="400" height="400" viewBox="0 0 400 400">
  <g transform="translate(0.000000,400.000000) scale(0.050000,-0.050000)"
fill="#ffffff" stroke="none">
<path d="M0 4000 l0 -4000 4000 0 4000 0 0 4000 0 4000 -4000 0 -4000 0 0
-4000z m2554 1459 c28 -11 58 -25 66 -30 8 -5 31 -17 50 -28 38 -21 116 -99
145 -146 36 -57 55 -100 50 -112 -3 -10 -171 -13 -807 -13 -517 0 -816 -4
-840 -10 -82 -23 -125 -141 -78 -217 43 -71 7 -67 685 -74 521 -5 617 -8 660
-21 121 -39 214 -109 286 -216 16 -24 29 -45 29 -48 0 -3 10 -26 22 -52 20
-42 22 -63 22 -197 1 -138 -1 -153 -22 -186 -12 -20 -22 -43 -22 -51 0 -21
-73 -117 -125 -163 -53 -47 -127 -86 -209 -110 -53 -15 -125 -17 -697 -16
-603 0 -643 1 -702 20 -34 10 -83 29 -107 42 -48 24 -200 170 -200 191 0 7 -9
24 -20 38 -21 27 -26 65 -10 75 5 3 358 6 784 5 521 0 790 3 823 10 58 13 95
47 118 106 16 41 16 47 0 88 -20 52 -57 89 -104 105 -24 8 -198 11 -575 11
-648 0 -676 4 -811 92 -272 177 -301 580 -58 798 52 46 117 90 134 90 6 0 24
8 42 17 49 26 126 28 796 25 602 -3 626 -3 675 -23z m4595 4 c108 -48 150 -74
205 -128 63 -62 130 -172 117 -193 -5 -8 -221 -12 -833 -14 l-827 -3 -30 -29
c-37 -36 -61 -84 -61 -124 0 -42 56 -114 100 -129 26 -9 193 -12 614 -12 628
-1 622 -1 742 -58 62 -29 156 -111 192 -167 76 -119 103 -247 83 -392 -17
-124 -56 -201 -145 -290 -77 -77 -121 -104 -224 -136 -65 -20 -86 -20 -707
-19 -544 2 -648 4 -695 17 -115 33 -216 101 -279 188 -48 67 -81 138 -72 154
6 11 152 13 788 12 799 0 856 2 896 38 28 25 57 87 57 122 0 35 -29 97 -56
122 -41 36 -92 39 -625 38 -580 -1 -660 5 -747 52 -84 45 -104 59 -147 103
-95 99 -134 185 -142 315 -10 173 27 278 141 397 38 40 73 73 79 73 6 0 18 6
26 14 34 31 127 59 211 65 47 3 359 5 694 3 531 -2 614 -5 645 -19z m-2465
-170 c67 -28 138 -92 170 -152 25 -49 26 -57 26 -211 l0 -159 -30 -16 c-44
-23 -256 -21 -290 2 -37 25 -40 32 -40 110 0 62 -3 75 -26 102 l-26 31 -408 0
c-225 0 -416 -3 -425 -6 -26 -10 -45 -59 -45 -117 0 -82 10 -90 185 -153 22
-8 54 -21 72 -29 17 -8 36 -15 43 -15 7 0 24 -7 38 -15 15 -8 47 -22 72 -31
25 -9 63 -22 85 -30 22 -8 52 -21 67 -29 14 -8 34 -15 43 -15 9 0 29 -7 43
-15 15 -8 45 -21 67 -29 22 -8 65 -24 95 -36 30 -12 73 -28 95 -36 22 -8 49
-19 60 -24 151 -69 155 -67 155 70 0 95 1 99 26 119 24 19 40 21 152 21 123 0
127 -1 154 -27 l28 -27 0 -238 c0 -294 -10 -335 -110 -451 -29 -33 -105 -87
-123 -87 -7 0 -24 -8 -37 -17 -23 -17 -74 -18 -725 -18 -648 0 -702 1 -730 17
-16 10 -35 18 -41 18 -25 0 -127 106 -155 162 l-30 60 1 191 c0 175 2 194 22
234 22 43 98 123 117 123 6 0 15 8 20 19 8 15 5 25 -19 49 -16 17 -32 46 -35
66 -10 53 1 366 14 409 7 21 37 64 69 97 47 50 69 65 127 85 l70 25 565 -3
c542 -3 567 -4 614 -24z m2834 -1872 c26 -14 28 -33 7 -51 -13 -11 -653 -12
-3408 -7 -1866 3 -3400 9 -3409 12 -23 9 -31 35 -16 53 11 13 382 14 3408 10
2587 -4 3401 -8 3418 -17z m-5408 -605 c62 -25 73 -49 45 -93 -14 -21 -22 -24
-48 -18 -65 14 -146 17 -166 5 -13 -6 -21 -21 -21 -35 0 -30 52 -60 124 -70
50 -8 104 -38 137 -76 15 -17 19 -38 19 -93 0 -71 0 -72 -42 -113 -35 -33 -56
-44 -108 -55 -59 -13 -72 -13 -136 2 -67 16 -134 53 -134 72 0 20 31 67 47 72
10 3 40 -1 67 -9 111 -34 215 -2 179 54 -10 16 -17 18 -141 47 -61 15 -78 24
-107 56 -31 34 -35 44 -35 96 0 77 24 119 86 153 65 36 154 38 234 5z m4521 6
c13 -10 31 -21 40 -24 57 -21 135 -186 124 -262 -24 -169 -121 -270 -265 -278
-73 -4 -145 20 -194 66 -68 62 -96 128 -96 226 0 66 4 87 29 136 56 112 123
153 252 154 69 0 91 -4 110 -18z m-5559 -10 c133 -47 196 -197 148 -353 -26
-86 -55 -125 -119 -159 -42 -22 -57 -24 -176 -25 -71 0 -138 3 -147 7 -17 7
-18 29 -18 259 0 221 2 255 17 271 14 16 32 18 132 17 81 0 130 -6 163 -17z
m479 2 c20 -24 23 -491 3 -521 -16 -25 -61 -31 -95 -13 -18 10 -19 24 -19 265
0 217 2 256 16 269 20 21 78 21 95 0z m1228 3 c6 -8 14 -27 17 -44 9 -44 -15
-63 -81 -63 -43 0 -56 -4 -65 -19 -6 -12 -10 -98 -10 -210 0 -178 -1 -191 -19
-201 -31 -16 -69 -12 -91 10 -19 19 -20 32 -17 203 2 215 2 217 -77 217 -61 0
-76 12 -76 60 0 20 5 41 12 48 18 18 392 17 407 -1z m534 -7 c52 -23 79 -61
96 -136 17 -72 1 -128 -50 -175 -21 -20 -39 -41 -39 -47 0 -5 22 -38 50 -73
60 -77 63 -96 15 -105 -70 -13 -111 14 -171 114 -53 86 -94 76 -100 -25 -2
-32 -6 -63 -8 -69 -7 -19 -78 -25 -103 -8 -23 14 -23 15 -23 260 0 150 4 253
10 265 10 17 22 19 144 19 112 0 141 -3 179 -20z m441 4 c3 -9 6 -129 6 -269
0 -285 1 -282 -71 -272 -22 3 -43 7 -45 10 -7 7 -6 526 1 537 11 17 102 12
109 -6z m586 -7 c31 -15 52 -35 67 -62 27 -51 28 -76 2 -126 -17 -34 -18 -46
-9 -74 6 -18 18 -39 26 -45 22 -19 18 -106 -7 -146 -40 -66 -72 -76 -244 -80
-117 -2 -156 0 -165 10 -11 15 -16 499 -4 529 5 15 24 17 148 17 125 -1 146
-3 186 -23z m411 6 c10 -12 14 -54 16 -152 1 -75 2 -152 2 -171 1 -51 48 -100
95 -100 55 0 85 18 96 59 5 20 10 105 10 189 0 139 2 154 20 172 30 30 85 27
106 -5 15 -22 16 -47 11 -188 -6 -184 -21 -244 -70 -295 -56 -59 -144 -80
-228 -54 -72 23 -116 57 -145 114 -23 45 -24 57 -24 236 0 133 4 192 12 200
18 18 83 15 99 -5z m957 5 c7 -7 12 -29 12 -50 0 -46 -19 -58 -89 -58 -27 0
-53 -5 -56 -10 -6 -10 -12 -155 -14 -343 l-1 -78 -57 3 -58 3 -5 200 c-3 110
-9 206 -13 213 -5 7 -30 12 -62 12 -79 0 -109 42 -69 98 15 21 20 22 208 22
136 0 195 -3 204 -12z m316 -10 c13 -19 16 -61 16 -263 0 -174 -3 -244 -12
-253 -17 -17 -104 -16 -111 2 -11 28 -8 496 3 516 16 29 83 28 104 -2z m1103
-15 c26 -34 45 -62 78 -114 45 -72 90 -129 101 -129 11 0 14 25 14 118 0 136
10 162 63 162 63 0 62 4 64 -262 2 -134 1 -253 -2 -265 -6 -27 -33 -36 -79
-28 -30 6 -43 19 -93 91 -32 47 -67 100 -78 118 -66 111 -75 103 -75 -63 0
-141 -4 -151 -59 -151 -65 0 -63 -8 -63 278 0 143 3 266 7 271 3 6 26 11 50
11 38 0 47 -4 72 -37z M3575 4473 c-29 -6 -95 -54 -119 -86 -18 -25 -21 -43
-21 -130 0 -112 10 -137 79 -188 l31 -24 570 0 c532 0 570 1 573 17 3 18 -16
29 -138 78 -30 12 -74 31 -98 41 -23 10 -48 19 -55 19 -6 1 -30 9 -52 20 -22
11 -46 19 -53 20 -6 0 -29 9 -49 20 -21 11 -45 20 -53 20 -9 0 -25 6 -36 14
-11 8 -40 19 -64 26 -24 7 -53 18 -64 26 -11 8 -30 14 -41 14 -11 0 -33 9 -50
20 -16 11 -38 20 -47 20 -10 0 -37 9 -60 19 -131 59 -180 69 -253 54z M6440
2698 c-73 -66 -90 -156 -47 -239 20 -38 30 -46 78 -62 54 -18 56 -18 102 2 40
17 51 28 67 67 52 121 -8 243 -124 251 -42 3 -55 0 -76 -19z M901 2696 c-8 -9
-11 -59 -9 -152 l3 -139 54 -3 c78 -5 96 3 131 52 75 110 5 256 -122 256 -27
0 -50 -6 -57 -14z M3122 2698 c-18 -18 -15 -103 4 -122 20 -21 102 -21 132 0
31 21 31 85 0 114 -25 23 -115 29 -136 8z M4130 2704 c-10 -11 -11 -25 -4 -52
9 -37 10 -37 65 -40 44 -2 61 1 82 18 32 26 34 43 7 70 -26 26 -130 29 -150 4z
M4140 2500 c-15 -9 -23 -72 -11 -90 11 -15 105 -19 157 -6 47 12 41 66 -9 87
-33 14 -120 19 -137 9z"/>
</g>
</svg>