<?xml version="1.0" encoding="UTF-8"?>
<svg xmlns="http://www.w3.org/2000/svg" width="400" height="400" viewBox="0 0 400 400">
  <g transform="translate(0.000000,400.000000) scale(0.050000,-0.050000)"
fill="#000000" stroke="none">
<path d="M0 4000 l0 -4000 4000 0 4000 0 0 4000 0 4000 -4000 0 -4000 0 0
-4000z m2554 1459 c28 -11 58 -25 66 -30 8 -5 31 -17 50 -28 38 -21 116 -99
145 -146 36 -56 55 -100 51 -112 -4 -10 -188 -13 -828 -15 -614 -2 -828 -6
-844 -15 -66 -38 -94 -145 -54 -210 43 -71 7 -67 685 -73 523 -5 617 -8 660
-22 120 -39 214 -110 286 -216 16 -24 29 -45 29 -48 0 -3 10 -26 22 -52 20
-42 22 -63 22 -197 1 -138 -1 -154 -22 -188 -12 -21 -22 -44 -22 -51 0 -19
-75 -116 -122 -159 -57 -51 -130 -90 -213 -113 -66 -18 -109 -19 -700 -19
-617 0 -631 0 -695 21 -36 12 -86 32 -110 45 -48 24 -200 170 -200 191 0 7 -9
24 -20 38 -21 27 -26 65 -10 75 5 3 358 6 784 5 521 0 790 3 823 10 58 13 95
47 118 106 16 41 16 47 0 88 -20 52 -57 89 -104 105 -24 8 -198 11 -574 11
-331 0 -566 4 -606 11 -128 20 -233 81 -317 184 -170 208 -146 516 53 695 52
46 117 90 134 90 6 0 24 8 42 17 49 26 126 28 796 25 602 -3 626 -3 675 -23z
m4596 4 c105 -46 149 -74 204 -128 63 -62 130 -172 117 -193 -5 -8 -221 -12
-833 -14 l-827 -3 -30 -29 c-37 -36 -61 -84 -61 -124 0 -42 56 -114 100 -129
26 -9 192 -12 613 -12 538 -1 582 -2 645 -20 89 -26 135 -51 205 -112 98 -86
149 -182 168 -317 26 -186 -21 -334 -145 -458 -76 -76 -119 -102 -224 -137
-66 -22 -74 -22 -699 -21 -568 1 -639 3 -695 18 -122 34 -222 100 -287 190
-48 67 -81 138 -72 154 6 11 152 13 788 12 799 0 856 2 896 38 28 25 57 87 57
122 0 35 -29 97 -56 122 -41 36 -92 39 -626 38 -323 0 -554 4 -603 10 -138 19
-273 100 -344 206 -59 86 -82 153 -88 254 -10 173 27 278 141 397 38 40 73 73
79 73 6 0 18 6 26 14 33 30 127 59 206 65 44 3 357 4 695 3 526 -3 620 -6 650
-19z m-2466 -170 c67 -28 138 -92 170 -152 25 -49 26 -57 26 -211 l0 -159 -30
-16 c-44 -23 -256 -21 -290 2 -37 25 -40 32 -40 110 0 62 -3 75 -26 102 l-26
31 -408 0 c-225 0 -416 -3 -425 -6 -26 -10 -45 -59 -45 -117 0 -82 10 -90 185
-153 22 -8 54 -21 72 -29 17 -8 36 -15 43 -15 7 0 24 -7 38 -15 15 -8 45 -21
67 -29 22 -8 56 -19 75 -26 19 -7 53 -20 75 -30 22 -10 56 -23 75 -30 19 -6
56 -20 83 -31 26 -10 71 -28 100 -40 28 -12 70 -27 92 -35 22 -8 49 -19 60
-24 92 -42 127 -52 138 -41 7 7 14 54 17 113 5 95 7 102 32 121 24 18 40 20
150 18 118 -2 124 -3 151 -28 l27 -27 0 -238 c0 -293 -12 -341 -110 -451 -29
-33 -106 -87 -123 -87 -7 0 -24 -8 -37 -17 -23 -17 -74 -18 -725 -18 -648 0
-702 1 -730 17 -16 10 -35 18 -41 18 -25 0 -127 106 -155 163 l-31 60 1 195
c1 183 3 197 24 232 33 56 71 96 104 114 43 22 46 40 13 74 -16 17 -32 46 -35
66 -10 53 1 366 14 409 7 21 37 64 69 97 47 50 69 65 127 85 l70 25 565 -3
c543 -3 567 -4 614 -24z m2834 -1872 c31 -17 29 -49 -5 -57 -34 -9 -6782 3
-6805 11 -23 9 -31 35 -16 53 11 13 382 14 3408 10 2587 -4 3401 -8 3418 -17z
m-5408 -605 c62 -25 73 -49 45 -93 -14 -21 -22 -24 -48 -18 -65 14 -146 17
-166 5 -13 -6 -21 -21 -21 -35 0 -30 52 -60 125 -71 47 -7 82 -25 133 -68 19
-17 22 -29 22 -96 l0 -76 -42 -41 c-61 -58 -141 -77 -236 -56 -64 14 -142 55
-142 75 0 5 7 22 15 38 17 34 53 47 84 31 31 -17 132 -24 164 -12 32 12 44 37
30 60 -10 16 -17 18 -141 47 -61 15 -78 24 -107 56 -31 34 -35 44 -35 96 0 77
24 119 86 153 65 36 154 38 234 5z m4521 6 c13 -10 31 -21 40 -24 57 -21 135
-186 124 -262 -24 -169 -121 -270 -265 -278 -116 -6 -217 55 -264 159 -38 83
-37 192 3 271 56 110 124 151 252 152 69 0 91 -4 110 -18z m-5559 -10 c133
-47 196 -197 148 -353 -26 -86 -55 -125 -119 -159 -42 -22 -57 -24 -176 -25
-71 0 -138 3 -147 7 -17 7 -18 29 -18 259 0 221 2 255 17 271 14 16 32 18 132
17 81 0 130 -6 163 -17z m484 -9 c7 -15 10 -107 10 -268 -1 -207 -3 -247 -16
-255 -21 -14 -84 -12 -98 2 -9 9 -12 81 -12 264 0 284 1 288 69 282 25 -2 39
-10 47 -25z m1223 14 c6 -8 14 -27 17 -44 9 -44 -15 -63 -81 -63 -43 0 -56 -4
-65 -19 -6 -12 -10 -98 -10 -210 0 -178 -1 -191 -19 -201 -11 -5 -33 -10 -50
-10 -55 0 -61 23 -58 226 2 212 2 214 -77 214 -61 0 -76 12 -76 60 0 20 5 41
12 48 18 18 392 17 407 -1z m534 -7 c52 -23 79 -61 96 -136 17 -72 1 -128 -50
-175 -21 -20 -39 -41 -39 -47 0 -5 22 -38 50 -73 60 -77 63 -96 15 -105 -70
-13 -111 14 -171 114 -53 86 -94 76 -100 -25 -2 -32 -6 -63 -8 -69 -7 -19 -78
-25 -103 -8 -23 14 -23 15 -23 260 0 150 4 253 10 265 10 17 22 19 144 19 112
0 141 -3 179 -20z m441 4 c3 -9 6 -129 6 -269 0 -285 1 -282 -71 -272 -22 3
-43 7 -45 10 -8 7 -7 525 1 537 11 17 102 12 109 -6z m586 -7 c30 -15 52 -35
67 -62 28 -50 28 -70 3 -128 -19 -42 -19 -49 -6 -80 8 -19 19 -38 25 -41 6 -4
11 -30 11 -58 0 -61 -26 -107 -77 -139 -33 -21 -51 -23 -189 -25 -116 -2 -155
0 -163 10 -12 15 -17 499 -5 529 5 15 24 17 148 17 125 -1 146 -3 186 -23z
m411 6 c10 -11 14 -53 16 -147 1 -72 2 -149 2 -171 2 -81 80 -128 155 -93 37
16 46 61 46 236 0 139 2 154 20 172 29 29 85 27 106 -5 13 -20 15 -50 13 -177
-4 -179 -21 -253 -72 -306 -56 -59 -144 -80 -228 -54 -72 23 -116 57 -145 114
-23 45 -24 57 -24 236 0 133 4 192 12 200 18 18 83 15 99 -5z m957 5 c7 -7 12
-29 12 -50 0 -46 -19 -58 -90 -58 -32 0 -52 -5 -56 -13 -4 -12 -10 -170 -13
-340 l-1 -78 -57 3 -58 3 -5 200 c-3 110 -9 206 -13 213 -5 7 -30 12 -62 12
-79 0 -109 42 -69 98 15 21 20 22 208 22 136 0 195 -3 204 -12z m316 -10 c13
-19 16 -61 16 -263 0 -174 -3 -244 -12 -253 -17 -17 -104 -16 -111 2 -11 28
-8 496 3 516 16 29 83 28 104 -2z m1088 5 c22 -26 88 -122 88 -129 0 -3 15
-24 34 -47 18 -23 39 -52 45 -64 6 -13 18 -23 26 -23 12 0 15 21 15 118 0 136
10 162 63 162 63 0 62 6 64 -274 2 -275 0 -286 -50 -286 -46 0 -68 14 -102 64
-19 28 -47 69 -62 91 -16 22 -34 51 -41 65 -23 45 -49 73 -61 66 -7 -5 -11
-50 -11 -135 0 -141 -4 -151 -59 -151 -66 0 -64 -8 -64 278 1 143 4 265 7 271
12 18 91 13 108 -6z M3575 4473 c-29 -6 -95 -54 -119 -86 -18 -25 -21 -42 -21
-130 0 -112 11 -138 79 -188 l31 -24 570 0 c532 0 570 1 573 17 2 13 -9 23
-40 37 -61 27 -133 56 -203 81 -33 13 -78 31 -101 41 -23 11 -47 19 -54 19 -6
0 -24 7 -38 15 -15 8 -47 22 -72 31 -25 9 -63 22 -85 30 -22 8 -52 21 -67 29
-14 8 -34 15 -45 15 -10 0 -31 9 -48 20 -16 11 -38 20 -47 20 -10 0 -37 9 -60
19 -131 59 -180 69 -253 54z M6444 2699 c-72 -53 -94 -151 -53 -236 23 -48 37
-58 99 -72 62 -14 125 15 147 66 53 127 -1 250 -115 260 -37 3 -54 0 -78 -18z
M901 2696 c-8 -9 -11 -59 -9 -152 l3 -139 54 -3 c78 -5 96 3 131 52 74 109 4
256 -122 256 -27 0 -50 -6 -57 -14z M3122 2698 c-18 -18 -15 -103 4 -122 20
-21 102 -21 132 0 31 21 31 85 0 114 -25 23 -115 29 -136 8z M4129 2703 c-9
-10 -10 -25 -3 -51 9 -37 10 -37 65 -40 44 -2 61 1 82 18 32 25 34 43 7 70
-15 15 -32 19 -79 19 -40 -1 -64 -6 -72 -16z M4139 2499 c-14 -9 -21 -72 -10
-89 8 -11 27 -14 78 -12 81 3 99 8 107 29 11 27 -3 50 -37 64 -32 14 -121 19
-138 8z"/>
</g>
</svg>