<?xml version="1.0" encoding="UTF-8"?>
<svg xmlns="http://www.w3.org/2000/svg" width="600" height="600" viewBox="0 0 600 600">
  <g transform="translate(0.000000,600.000000) scale(0.023697,-0.025084)"
fill="#0f172a" stroke="none">
<path d="M0 14080 l0 -9840 9998 2 9997 3 3 9838 2 9837 -10000 0 -10000 0 0
-9840z m6085 3859 c172 -11 239 -21 285 -41 19 -9 63 -28 97 -43 35 -14 86
-42 115 -61 29 -18 56 -34 61 -34 27 0 225 -178 303 -272 38 -46 77 -92 87
-103 10 -11 29 -42 43 -70 14 -27 29 -57 34 -65 57 -100 63 -145 23 -161 -31
-12 -587 -17 -2623 -24 -712 -2 -1336 -9 -1387 -14 -66 -6 -103 -15 -130 -32
-47 -27 -113 -89 -113 -104 0 -7 -9 -20 -20 -30 -11 -10 -20 -24 -20 -30 0 -7
-10 -34 -21 -61 -18 -40 -21 -60 -16 -124 3 -42 13 -90 20 -106 8 -16 25 -51
38 -77 45 -92 101 -122 259 -137 132 -13 838 -27 1945 -40 818 -9 1027 -18
1140 -51 67 -20 154 -52 185 -70 8 -4 46 -24 84 -44 134 -69 313 -233 434
-397 23 -32 62 -97 86 -145 110 -224 116 -256 116 -642 0 -260 -2 -303 -19
-357 -10 -34 -25 -74 -33 -90 -20 -38 -53 -112 -67 -147 -17 -44 -94 -156
-149 -220 -28 -31 -63 -72 -77 -91 -34 -44 -201 -176 -224 -176 -4 0 -15 -8
-24 -17 -18 -21 -74 -50 -167 -88 -36 -15 -79 -33 -97 -41 -17 -8 -36 -14 -42
-14 -6 0 -28 -9 -49 -20 -33 -17 -67 -22 -208 -27 -317 -13 -2661 -15 -2943
-3 -275 12 -300 17 -428 75 -17 8 -40 15 -51 15 -41 0 -213 107 -311 194 -138
122 -294 292 -323 351 -17 33 -45 87 -64 120 -36 64 -43 115 -19 138 19 19
364 25 2405 36 1449 8 1590 10 1640 26 132 41 194 93 259 218 52 99 56 171 15
263 -39 87 -145 212 -180 214 -6 0 -22 9 -36 19 -50 39 -126 42 -1498 52 -729
5 -1352 13 -1385 18 -33 5 -98 14 -145 20 -171 24 -314 83 -503 208 -99 65
-219 173 -253 228 -10 17 -33 48 -51 70 -51 65 -148 262 -172 353 -27 101 -31
122 -43 207 -24 166 -11 394 28 515 9 25 19 61 24 81 5 19 16 49 25 65 8 16
15 37 15 46 0 9 5 20 11 24 6 3 19 25 30 48 10 22 28 55 39 71 11 17 27 43 36
60 44 78 288 309 379 359 39 21 64 37 94 59 13 9 36 17 50 17 15 0 63 17 106
39 72 34 93 40 205 50 69 7 148 13 175 15 137 7 2879 3 3000 -5z m11670 -11
c55 -9 114 -23 130 -31 17 -8 62 -30 100 -49 158 -77 204 -105 293 -175 144
-115 277 -281 365 -456 28 -55 37 -84 33 -102 -6 -23 -10 -25 -65 -24 -32 1
-64 -2 -71 -6 -6 -4 -377 -8 -823 -10 -447 -2 -928 -7 -1069 -11 -142 -3 -679
-9 -1194 -13 l-936 -6 -72 -76 c-145 -155 -178 -300 -100 -434 29 -51 93 -120
142 -153 71 -48 133 -50 1697 -60 693 -4 1266 -11 1272 -15 7 -4 69 -14 138
-23 118 -13 141 -20 241 -65 23 -11 48 -19 56 -19 8 0 23 -9 33 -20 10 -11 24
-20 31 -20 31 0 256 -173 345 -266 120 -126 173 -208 239 -374 10 -25 28 -68
39 -97 12 -28 21 -62 21 -75 0 -13 9 -64 20 -114 27 -125 28 -351 0 -500 -43
-233 -121 -413 -234 -539 -20 -22 -64 -74 -99 -116 -72 -88 -310 -279 -347
-279 -6 0 -27 -9 -47 -20 -21 -11 -44 -20 -51 -20 -7 0 -29 -8 -50 -18 -20
-10 -64 -24 -97 -31 -33 -7 -71 -17 -85 -23 -13 -5 -92 -12 -175 -16 -211 -10
-2377 -4 -2806 7 -371 10 -386 12 -514 62 -28 10 -59 19 -70 19 -11 0 -31 9
-45 20 -14 11 -30 20 -37 20 -18 0 -103 47 -143 78 -19 15 -46 35 -60 44 -117
74 -328 326 -391 468 -6 14 -20 44 -31 67 -11 24 -18 55 -16 70 6 57 -68 54
2018 68 2024 14 1952 12 2123 56 66 17 144 116 192 244 22 60 23 141 1 183 -9
17 -16 38 -16 47 0 18 -40 92 -77 141 -23 31 -35 38 -113 72 -90 39 -215 44
-1525 53 -693 5 -1305 13 -1360 18 -151 13 -264 31 -325 54 -54 19 -207 92
-265 125 -39 22 -160 115 -209 161 -48 45 -206 236 -206 249 0 5 -6 15 -14 21
-20 17 -101 206 -124 291 -57 209 -53 588 7 768 31 90 86 199 139 277 96 138
292 342 372 388 30 17 60 36 65 43 20 22 176 94 208 94 12 1 40 8 62 16 126
48 268 51 1900 49 1277 -2 1494 -4 1580 -17z m-6760 -403 c281 -3 533 -9 560
-14 104 -19 152 -35 203 -65 29 -17 61 -35 70 -41 35 -20 84 -58 129 -99 45
-40 163 -179 163 -191 0 -3 8 -18 18 -32 9 -15 26 -52 36 -83 18 -50 20 -92
23 -441 l4 -386 -43 -25 c-82 -46 -200 -61 -445 -55 -244 6 -279 13 -347 69
-54 46 -62 78 -70 268 -7 150 -17 181 -85 260 l-39 45 -1024 0 c-802 0 -1031
-3 -1058 -13 -41 -15 -79 -68 -92 -127 -19 -92 -29 -172 -23 -205 18 -107 29
-132 80 -176 27 -25 66 -49 86 -54 20 -6 42 -17 49 -25 7 -8 23 -15 37 -15 13
0 41 -9 63 -20 22 -11 47 -20 57 -20 10 -1 36 -9 58 -20 22 -11 46 -19 53 -20
7 0 30 -9 50 -19 37 -20 106 -44 172 -61 37 -9 106 -40 200 -90 30 -16 66 -29
80 -30 14 0 43 -9 65 -20 22 -11 48 -19 58 -20 9 0 34 -9 54 -20 21 -11 44
-20 51 -20 7 0 30 -9 50 -20 70 -37 168 -75 237 -92 41 -10 118 -44 145 -64 8
-5 47 -22 85 -36 67 -24 89 -32 180 -64 22 -8 52 -21 67 -29 14 -8 34 -15 43
-15 9 0 48 -14 88 -31 40 -17 95 -39 122 -49 106 -38 122 -44 202 -82 46 -21
87 -38 93 -38 5 0 27 -9 47 -20 21 -11 47 -20 59 -20 11 0 35 -5 52 -11 25 -9
37 -7 61 7 17 10 33 25 37 33 4 9 10 111 14 226 4 157 10 219 22 246 19 43 81
94 128 104 19 4 145 10 280 12 312 6 328 2 417 -84 l65 -63 -4 -517 c-5 -550
-17 -707 -59 -818 -10 -28 -19 -56 -19 -62 0 -19 -56 -119 -108 -193 -44 -63
-209 -240 -224 -240 -10 0 -96 -59 -103 -71 -4 -5 -14 -9 -23 -9 -10 0 -51
-16 -92 -36 -123 -58 -190 -63 -991 -65 -1309 -3 -2324 2 -2484 12 -153 9
-165 11 -268 52 l-109 42 -117 121 c-125 129 -171 191 -239 324 l-43 85 3 481
c2 335 6 485 14 495 6 8 17 31 24 52 22 68 58 121 148 216 59 62 110 105 148
126 57 31 59 34 62 75 3 37 -1 48 -31 79 -50 54 -80 101 -96 151 -20 63 -25
373 -11 600 6 102 15 241 19 310 4 69 13 134 19 145 6 11 18 36 26 55 14 37
115 159 206 250 72 72 223 147 390 194 46 13 1046 13 2275 1z m6500 -4697
c566 -4 1100 -13 1227 -21 47 -2 63 -8 88 -32 29 -28 37 -58 22 -82 -23 -36
-47 -37 -1032 -42 -2202 -12 -14108 7 -15539 25 -475 6 -504 7 -522 25 -28 28
-26 94 4 111 16 9 121 14 377 19 410 7 14475 5 15375 -3z m-12405 -1499 c83
-10 134 -26 238 -76 107 -51 121 -139 37 -229 -25 -27 -26 -27 -118 -20 -51 3
-108 11 -127 16 -19 6 -82 10 -140 10 -103 0 -106 -1 -143 -31 -54 -44 -52
-83 7 -142 36 -36 61 -49 128 -71 46 -14 92 -26 104 -26 23 0 139 -36 168 -52
10 -5 35 -19 55 -31 20 -11 48 -27 63 -34 15 -8 48 -37 72 -65 52 -60 61 -99
61 -263 0 -147 -6 -164 -78 -238 -34 -34 -76 -72 -92 -84 -49 -33 -133 -73
-154 -73 -11 0 -47 -7 -81 -16 -91 -23 -296 -1 -375 40 -16 9 -39 16 -50 16
-11 0 -35 9 -53 20 -18 11 -37 20 -42 20 -15 0 -83 49 -102 73 -10 12 -18 30
-18 39 0 24 38 87 79 131 33 35 39 37 96 37 40 0 69 -6 84 -16 53 -38 279 -57
375 -33 24 6 60 24 80 41 28 23 36 37 36 63 0 44 -51 105 -87 105 -13 0 -45 8
-71 19 -26 10 -74 24 -107 31 -268 55 -304 73 -416 213 l-39 49 0 131 c0 116
3 139 24 190 13 34 43 78 67 104 46 46 122 103 140 103 5 0 23 7 40 15 36 19
147 42 209 44 25 0 83 -4 130 -10z m11395 -3 c48 -9 87 -25 125 -50 30 -20 59
-36 65 -36 31 0 165 -141 165 -173 0 -6 6 -18 14 -26 12 -15 43 -83 86 -191
26 -66 50 -178 50 -231 0 -25 -7 -68 -15 -95 -8 -27 -15 -60 -15 -74 0 -14 -9
-43 -20 -65 -11 -22 -19 -45 -20 -52 0 -15 -67 -140 -95 -178 -66 -90 -156
-166 -245 -207 -102 -46 -176 -61 -310 -61 -99 -1 -131 3 -155 16 -16 9 -37
17 -45 17 -8 0 -28 9 -45 20 -16 11 -37 20 -46 20 -8 0 -31 11 -50 25 -19 14
-45 33 -58 42 -36 26 -130 126 -154 165 -33 52 -77 140 -77 153 0 7 -9 41 -20
75 -30 93 -29 348 1 423 58 146 116 238 208 332 91 92 183 133 336 150 150 17
237 17 320 1z m-9572 -33 c26 -12 47 -28 47 -35 0 -7 7 -26 15 -41 29 -57 30
-94 1 -136 -33 -47 -75 -61 -187 -61 -60 0 -94 -5 -119 -18 -58 -29 -63 -56
-67 -397 -1 -165 -4 -371 -6 -457 l-3 -158 -34 -35 c-32 -33 -37 -35 -101 -35
-63 0 -70 2 -118 40 -28 22 -53 50 -56 63 -3 12 -6 218 -8 457 -2 424 -3 436
-24 475 -17 33 -29 42 -67 53 -26 6 -72 12 -104 12 -31 0 -79 8 -107 18 -49
17 -50 19 -64 74 -20 78 -2 164 37 180 54 20 175 26 542 24 362 -2 377 -2 423
-23z m1297 5 c13 -10 33 -18 44 -18 53 0 165 -100 203 -180 14 -30 32 -68 40
-85 8 -16 22 -73 29 -125 12 -76 12 -109 3 -170 -14 -91 -35 -125 -142 -238
-106 -110 -105 -113 35 -288 31 -39 73 -101 94 -138 l37 -68 -20 -26 c-25 -33
-48 -40 -145 -41 -64 -1 -85 3 -125 25 -61 32 -106 75 -150 144 -20 30 -44 67
-54 82 -11 15 -19 32 -19 37 0 6 -30 42 -68 81 -81 84 -106 90 -145 33 -22
-31 -28 -56 -36 -143 -10 -102 -25 -193 -36 -210 -3 -5 -20 -11 -38 -15 -17
-4 -46 -12 -64 -18 -25 -8 -45 -7 -98 8 -110 29 -105 0 -105 613 0 663 8 739
84 756 11 2 163 4 336 3 282 -2 318 -4 340 -19z m1157 -11 l28 -27 0 -608 c0
-573 -1 -610 -19 -657 -28 -73 -37 -80 -104 -78 -77 1 -138 19 -156 45 -12 17
-15 75 -17 332 -2 416 0 704 8 860 8 168 9 169 139 164 87 -3 96 -5 121 -31z
m1408 4 c33 -13 74 -30 90 -39 38 -21 135 -113 135 -128 0 -6 7 -17 15 -24 9
-7 20 -32 26 -57 6 -24 15 -46 20 -49 5 -3 9 -25 9 -49 0 -44 -11 -78 -54
-163 -42 -85 -22 -215 45 -288 32 -35 44 -123 29 -222 -15 -99 -42 -158 -102
-219 -96 -98 -217 -122 -638 -126 -292 -2 -306 0 -332 46 -10 17 -14 160 -16
626 -2 333 -1 620 3 639 13 68 89 81 450 78 244 -2 264 -4 320 -25z m1913 6
c69 -52 74 -65 79 -215 7 -200 -13 -620 -33 -722 -18 -89 -55 -197 -83 -240
-46 -73 -217 -200 -269 -200 -8 0 -46 -10 -84 -21 -104 -32 -226 -16 -363 48
-86 39 -194 125 -229 182 -13 20 -31 50 -42 66 -10 17 -27 53 -38 80 -18 46
-20 82 -24 435 -2 212 -1 422 3 467 6 78 9 84 38 105 47 34 148 37 202 6 32
-19 41 -31 48 -63 16 -77 25 -273 26 -528 1 -302 7 -327 94 -408 51 -48 110
-69 192 -69 77 0 178 66 190 124 12 61 28 324 34 576 8 317 10 324 75 370 55
39 136 42 184 7z m1564 0 c39 -27 56 -111 37 -187 -18 -71 -40 -82 -184 -91
-110 -6 -157 -17 -170 -40 -9 -14 -21 -302 -30 -724 -4 -159 -10 -293 -13
-297 -10 -9 -26 -10 -143 -9 -67 1 -111 6 -122 14 -15 10 -18 37 -22 192 -7
261 -18 635 -20 670 -7 86 -19 156 -29 163 -17 13 -93 30 -165 38 -91 9 -120
19 -158 56 -27 26 -33 40 -33 73 0 47 50 132 90 152 19 9 134 12 480 10 422
-2 457 -3 482 -20z m780 -16 c54 -50 55 -55 63 -536 7 -385 -4 -745 -24 -769
-6 -7 -32 -17 -58 -24 -57 -15 -188 -2 -210 21 -25 25 -36 271 -29 687 3 212
10 435 16 495 10 103 12 112 40 138 27 24 38 27 96 27 61 0 67 -2 106 -39z
m2721 9 c26 -17 47 -35 47 -41 0 -6 18 -33 40 -59 22 -26 40 -50 40 -53 0 -3
24 -40 53 -82 28 -42 73 -109 99 -148 76 -116 191 -268 212 -279 12 -7 21 -7
28 0 16 16 27 143 28 317 1 88 7 194 14 235 12 64 18 78 50 107 34 31 40 33
110 33 131 0 130 6 141 -671 4 -239 4 -486 0 -548 -7 -104 -10 -116 -35 -144
-23 -26 -35 -31 -86 -35 -48 -3 -69 1 -115 22 -63 29 -80 46 -141 136 -24 36
-69 100 -101 142 -31 42 -57 79 -57 82 0 3 -25 42 -56 87 -31 45 -59 92 -64
104 -4 11 -15 27 -24 34 -9 7 -16 18 -16 23 0 19 -53 78 -71 78 -39 0 -44 -33
-49 -335 l-6 -290 -26 -41 c-26 -41 -27 -41 -99 -46 -102 -8 -136 3 -149 50
-22 74 -29 224 -30 578 0 382 14 704 32 738 17 32 27 36 108 36 66 0 81 -4
123 -30z m-15199 5 c120 -19 197 -49 274 -109 124 -95 182 -179 230 -336 69
-221 1 -562 -144 -728 -59 -67 -192 -154 -264 -173 -41 -10 -124 -14 -325 -13
-267 0 -367 6 -394 24 -25 15 -29 107 -30 576 -1 455 10 696 32 723 7 8 30 22
52 32 35 16 69 19 254 19 144 0 247 -5 315 -15z m1288 -2 c21 -10 40 -27 42
-38 27 -128 31 -206 31 -655 0 -419 -2 -484 -18 -555 -23 -103 -37 -118 -122
-123 -35 -2 -76 -1 -89 2 -36 9 -74 51 -81 89 -3 17 -5 295 -3 617 2 486 5
590 17 613 32 61 143 86 223 50z M8940 15420 c-19 -11 -42 -19 -49 -20 -40 -1
-231 -156 -267 -217 l-29 -48 0 -245 c1 -245 1 -245 27 -300 29 -59 60 -96
123 -147 22 -18 55 -45 74 -60 l35 -28 485 -3 c777 -4 2311 13 2344 26 19 8
27 19 27 36 0 21 -11 30 -62 56 -35 17 -70 34 -78 39 -33 19 -111 51 -123 51
-7 0 -29 9 -50 20 -20 11 -44 20 -53 20 -9 0 -33 8 -53 19 -20 10 -58 28 -86
39 -67 27 -97 40 -115 51 -8 5 -35 14 -60 21 -25 7 -53 16 -62 21 -10 5 -25 9
-33 9 -9 0 -33 9 -53 19 -52 27 -144 61 -164 61 -9 0 -51 18 -92 39 -41 22
-107 49 -148 61 -40 12 -84 31 -97 41 -13 11 -30 19 -38 19 -7 0 -31 9 -53 20
-22 11 -48 20 -59 20 -11 0 -35 9 -53 20 -18 11 -41 20 -51 20 -11 0 -31 8
-45 18 -27 19 -97 42 -125 42 -19 0 -86 30 -152 69 -27 16 -62 30 -76 30 -15
1 -46 10 -70 21 -24 11 -54 20 -65 20 -12 0 -33 9 -47 20 -14 11 -31 20 -39
20 -7 0 -30 9 -51 20 -20 11 -47 20 -60 20 -12 0 -33 7 -45 16 -12 8 -62 26
-110 40 -113 31 -249 33 -302 4z M16135 11015 c-61 -51 -117 -111 -136 -145
-11 -19 -23 -42 -29 -50 -21 -35 -45 -140 -44 -200 0 -107 63 -273 121 -321
38 -32 83 -53 166 -78 85 -26 127 -26 174 -1 21 11 43 20 49 20 37 0 164 134
164 173 0 8 9 34 20 58 15 35 20 66 20 147 0 88 -4 111 -26 165 -70 166 -208
256 -394 256 -44 0 -61 -5 -85 -24z M7843 11003 c-52 -18 -68 -57 -66 -158 5
-164 44 -205 198 -205 104 0 156 21 200 79 21 29 25 46 25 101 0 58 -4 72 -30
108 -37 52 -62 67 -128 81 -69 14 -147 12 -199 -6z M10363 11020 c-29 -13 -44
-27 -49 -45 -6 -24 2 -124 13 -152 10 -26 93 -53 162 -53 120 0 210 41 247
112 14 27 13 32 -7 67 -34 60 -112 91 -231 91 -70 0 -104 -5 -135 -20z M10364
10486 c-37 -17 -44 -31 -51 -116 -5 -59 -3 -69 18 -94 21 -23 33 -28 93 -32
38 -3 72 -7 75 -9 3 -2 57 1 120 5 109 8 116 10 145 39 22 23 30 40 30 67 0
32 -7 44 -48 81 -26 24 -58 45 -70 47 -158 29 -264 33 -312 12z M2307 11008
c-72 -19 -72 -19 -70 -400 0 -212 5 -343 11 -351 17 -20 289 -16 327 5 56 30
115 97 165 188 22 41 25 56 25 165 0 107 -3 125 -25 170 -66 135 -141 197
-265 221 -80 16 -114 16 -168 2z"/>
</g>
</svg>
